<svg aria-hidden="true" style="position: absolute; width: 0; height: 0; overflow: hidden;" version="1.1" xmlns="http://www.w3.org/2000/svg" xmlns:xlink="http://www.w3.org/1999/xlink">
<defs>
<symbol id="icon-trophy" viewBox="0 0 18 18">
<path d="M17 3h-3v-1c0-0.552-0.448-1-1-1h-8c-0.552 0-1 0.448-1 1v1h-3c-0.552 0-1 0.448-1 1v2c0 1.607 1.065 4 4 4h0.419c0.643 1.47 1.971 2.572 3.581 2.9v2.1h-1c-1.105 0-2 0.896-2 2h8c0-1.105-0.896-2-2-2h-1v-2.1c1.61-0.327 2.938-1.43 3.581-2.9h0.419c2.935 0 4-2.393 4-4v-2c0-0.552-0.448-1-1-1zM4 8c-1.826 0-1.992-1.536-2-2v-1h2v3zM12 8.624l-0.251 0.575c-0.478 1.094-1.557 1.801-2.749 1.801s-2.27-0.707-2.749-1.801l-0.251-0.575v-5.624h6v5.624zM16 6c0 0.334-0.097 2-2 2v-3h2v1z"></path>
<path d="M14.022 10.022c0.015 0 0.017-0.005-0.022-0.022v0.020c0.008 0.001 0.017 0.002 0.022 0.002z"></path>
<path d="M3.978 10.022c0.006 0 0.014-0.001 0.022-0.002v-0.020c-0.040 0.017-0.038 0.022-0.022 0.022z"></path>
</symbol>
<symbol id="icon-edit-3" viewBox="0 0 24 24">
<path d="M12 21h9c0.552 0 1-0.448 1-1s-0.448-1-1-1h-9c-0.552 0-1 0.448-1 1s0.448 1 1 1zM15.793 2.793l-12.5 12.5c-0.122 0.121-0.217 0.28-0.263 0.465l-1 4c-0.039 0.15-0.042 0.318 0 0.485 0.134 0.536 0.677 0.862 1.213 0.728l4-1c0.167-0.041 0.33-0.129 0.465-0.263l12.5-12.5c0.609-0.609 0.914-1.41 0.914-2.207s-0.305-1.598-0.914-2.207-1.411-0.915-2.208-0.915-1.598 0.305-2.207 0.914zM17.207 4.207c0.219-0.219 0.504-0.328 0.793-0.328s0.574 0.109 0.793 0.328 0.328 0.504 0.328 0.793-0.109 0.574-0.328 0.793l-12.304 12.304-2.115 0.529 0.529-2.115z"></path>
</symbol>
<symbol id="icon-user" viewBox="0 0 24 24">
<path d="M21 21v-2c0-1.38-0.561-2.632-1.464-3.536s-2.156-1.464-3.536-1.464h-8c-1.38 0-2.632 0.561-3.536 1.464s-1.464 2.156-1.464 3.536v2c0 0.552 0.448 1 1 1s1-0.448 1-1v-2c0-0.829 0.335-1.577 0.879-2.121s1.292-0.879 2.121-0.879h8c0.829 0 1.577 0.335 2.121 0.879s0.879 1.292 0.879 2.121v2c0 0.552 0.448 1 1 1s1-0.448 1-1zM17 7c0-1.38-0.561-2.632-1.464-3.536s-2.156-1.464-3.536-1.464-2.632 0.561-3.536 1.464-1.464 2.156-1.464 3.536 0.561 2.632 1.464 3.536 2.156 1.464 3.536 1.464 2.632-0.561 3.536-1.464 1.464-2.156 1.464-3.536zM15 7c0 0.829-0.335 1.577-0.879 2.121s-1.292 0.879-2.121 0.879-1.577-0.335-2.121-0.879-0.879-1.292-0.879-2.121 0.335-1.577 0.879-2.121 1.292-0.879 2.121-0.879 1.577 0.335 2.121 0.879 0.879 1.292 0.879 2.121z"></path>
</symbol>
<symbol id="icon-profile" viewBox="0 0 32 32">
<path d="M27 0h-24c-1.65 0-3 1.35-3 3v26c0 1.65 1.35 3 3 3h24c1.65 0 3-1.35 3-3v-26c0-1.65-1.35-3-3-3zM26 28h-22v-24h22v24zM8 18h14v2h-14zM8 22h14v2h-14zM10 9c0-1.657 1.343-3 3-3s3 1.343 3 3c0 1.657-1.343 3-3 3s-3-1.343-3-3zM15 12h-4c-1.65 0-3 0.9-3 2v2h10v-2c0-1.1-1.35-2-3-2z"></path>
</symbol>
<symbol id="icon-calendar" viewBox="0 0 32 32">
<path d="M10 12h4v4h-4zM16 12h4v4h-4zM22 12h4v4h-4zM4 24h4v4h-4zM10 24h4v4h-4zM16 24h4v4h-4zM10 18h4v4h-4zM16 18h4v4h-4zM22 18h4v4h-4zM4 18h4v4h-4zM26 0v2h-4v-2h-14v2h-4v-2h-4v32h30v-32h-4zM28 30h-26v-22h26v22z"></path>
</symbol>
<symbol id="icon-user-plus" viewBox="0 0 32 32">
<path d="M12 23c0-4.726 2.996-8.765 7.189-10.319 0.509-1.142 0.811-2.411 0.811-3.681 0-4.971 0-9-6-9s-6 4.029-6 9c0 3.096 1.797 6.191 4 7.432v1.649c-6.784 0.555-12 3.888-12 7.918h12.416c-0.271-0.954-0.416-1.96-0.416-3z"></path>
<path d="M23 14c-4.971 0-9 4.029-9 9s4.029 9 9 9c4.971 0 9-4.029 9-9s-4.029-9-9-9zM28 24h-4v4h-2v-4h-4v-2h4v-4h2v4h4v2z"></path>
</symbol>
<symbol id="icon-wrench" viewBox="0 0 32 32">
<path d="M31.342 25.559l-14.392-12.336c0.67-1.259 1.051-2.696 1.051-4.222 0-4.971-4.029-9-9-9-0.909 0-1.787 0.135-2.614 0.386l5.2 5.2c0.778 0.778 0.778 2.051 0 2.828l-3.172 3.172c-0.778 0.778-2.051 0.778-2.828 0l-5.2-5.2c-0.251 0.827-0.386 1.705-0.386 2.614 0 4.971 4.029 9 9 9 1.526 0 2.963-0.38 4.222-1.051l12.336 14.392c0.716 0.835 1.938 0.882 2.716 0.104l3.172-3.172c0.778-0.778 0.731-2-0.104-2.716z"></path>
</symbol>
<symbol id="icon-eye" viewBox="0 0 32 32">
<path d="M16 6c-6.979 0-13.028 4.064-16 10 2.972 5.936 9.021 10 16 10s13.027-4.064 16-10c-2.972-5.936-9.021-10-16-10zM23.889 11.303c1.88 1.199 3.473 2.805 4.67 4.697-1.197 1.891-2.79 3.498-4.67 4.697-2.362 1.507-5.090 2.303-7.889 2.303s-5.527-0.796-7.889-2.303c-1.88-1.199-3.473-2.805-4.67-4.697 1.197-1.891 2.79-3.498 4.67-4.697 0.122-0.078 0.246-0.154 0.371-0.228-0.311 0.854-0.482 1.776-0.482 2.737 0 4.418 3.582 8 8 8s8-3.582 8-8c0-0.962-0.17-1.883-0.482-2.737 0.124 0.074 0.248 0.15 0.371 0.228v0zM16 13c0 1.657-1.343 3-3 3s-3-1.343-3-3 1.343-3 3-3 3 1.343 3 3z"></path>
</symbol>
<symbol id="icon-star-empty" viewBox="0 0 32 32">
<path d="M32 12.408l-11.056-1.607-4.944-10.018-4.944 10.018-11.056 1.607 8 7.798-1.889 11.011 9.889-5.199 9.889 5.199-1.889-11.011 8-7.798zM16 23.547l-6.983 3.671 1.334-7.776-5.65-5.507 7.808-1.134 3.492-7.075 3.492 7.075 7.807 1.134-5.65 5.507 1.334 7.776-6.983-3.671z"></path>
</symbol>
<symbol id="icon-arrow-right" viewBox="0 0 32 32">
<path d="M31 16l-15-15v9h-16v12h16v9z"></path>
</symbol>
<symbol id="icon-arrow-left" viewBox="0 0 32 32">
<path d="M1 16l15 15v-9h16v-12h-16v-9z"></path>
</symbol>
<symbol id="icon-thumbs-up" viewBox="0 0 20 20">
<path d="M13.648 7.362c-0.133-0.355 3.539-3.634 1.398-6.291-0.501-0.621-2.201 2.975-4.615 4.603-1.332 0.898-4.431 2.81-4.431 3.867v6.842c0 1.271 4.914 2.617 8.648 2.617 1.369 0 3.352-8.576 3.352-9.938 0-1.368-4.221-1.344-4.352-1.7zM5 7.457c-0.658 0-3 0.4-3 3.123v4.848c0 2.721 2.342 3.021 3 3.021 0.657 0-1-0.572-1-2.26v-6.373c0-1.768 1.657-2.359 1-2.359z"></path>
</symbol>
</defs>
</svg>
